<svg width="20" height="20" viewBox="0 0 20 20" fill="none" xmlns="http://www.w3.org/2000/svg">
<path d="M13.7501 3.12495C13.75 2.39185 14.0077 1.68205 14.4782 1.11975C14.9486 0.557447 15.6018 0.178447 16.3235 0.049057C17.0452 -0.0803328 17.7894 0.0481275 18.4259 0.411963C19.0625 0.775798 19.5508 1.35184 19.8054 2.0393C20.0601 2.72677 20.0649 3.48188 19.819 4.17252C19.5731 4.86317 19.0921 5.44536 18.4603 5.81726C17.8284 6.18915 17.0859 6.32705 16.3626 6.20684C15.6394 6.08662 14.9814 5.71595 14.5038 5.15967L6.10648 9.05912C6.29953 9.67084 6.29953 10.3271 6.10648 10.9389L14.5038 14.8383C15.0086 14.2513 15.7134 13.8726 16.4816 13.7755C17.2497 13.6785 18.0265 13.87 18.6615 14.313C19.2965 14.756 19.7443 15.4189 19.9183 16.1733C20.0923 16.9276 19.98 17.7197 19.6032 18.396C19.2264 19.0723 18.612 19.5847 17.8789 19.8338C17.1458 20.0829 16.3463 20.0511 15.6354 19.7444C14.9245 19.4377 14.3528 18.8781 14.031 18.1739C13.7092 17.4698 13.6604 16.6713 13.8939 15.9332L5.49649 12.0337C5.08079 12.5181 4.52669 12.8636 3.90874 13.0237C3.29079 13.1838 2.63862 13.1508 2.03997 12.9292C1.44132 12.7076 0.924911 12.308 0.560206 11.7841C0.195502 11.2602 0 10.6373 0 9.99899C0 9.36071 0.195502 8.73774 0.560206 8.21388C0.924911 7.69003 1.44132 7.29041 2.03997 7.0688C2.63862 6.84719 3.29079 6.81422 3.90874 6.97431C4.52669 7.1344 5.08079 7.47988 5.49649 7.96428L13.8939 4.06482C13.7983 3.7607 13.7498 3.44374 13.7501 3.12495Z" fill="#898989"/>
</svg>
