<svg width="15" height="15" viewBox="0 0 15 16" fill="none" xmlns="http://www.w3.org/2000/svg">
  <path d="M6.31181 2.2931C6.31181 1.87138 6.47933 1.46693 6.77754 1.16873C7.07574 0.870531 7.48019 0.703003 7.90191 0.703003C8.32363 0.703003 8.72807 0.870531 9.02628 1.16873C9.32448 1.46693 9.49201 1.87138 9.49201 2.2931C10.405 2.72484 11.1834 3.39689 11.7436 4.23724C12.3039 5.07759 12.6249 6.05454 12.6722 7.06341V9.44856C12.732 9.94284 12.9071 10.4162 13.1833 10.8305C13.4595 11.2447 13.8291 11.5884 14.2623 11.8337H1.5415C1.97476 11.5884 2.34435 11.2447 2.62054 10.8305C2.89672 10.4162 3.07177 9.94284 3.1316 9.44856V7.06341C3.17896 6.05454 3.49995 5.07759 4.06018 4.23724C4.62041 3.39689 5.39876 2.72484 6.31181 2.2931" stroke="#0A376E" stroke-width="1.19258" stroke-linecap="round" stroke-linejoin="round"/>
  <path d="M5.51685 11.8337V12.6288C5.51685 13.2614 5.76814 13.868 6.21544 14.3153C6.66274 14.7626 7.26942 15.0139 7.902 15.0139C8.53458 15.0139 9.14125 14.7626 9.58855 14.3153C10.0359 13.868 10.2871 13.2614 10.2871 12.6288V11.8337" stroke="#0A376E" stroke-width="1.19258" stroke-linecap="round" stroke-linejoin="round"/>
</svg>
