<svg width="21" height="16" viewBox="0 0 21 16" fill="none" xmlns="http://www.w3.org/2000/svg">
<path d="M19.6875 16C19.6875 16 21 16 21 14.6667C21 13.3333 19.6875 9.33333 14.4375 9.33333C9.1875 9.33333 7.875 13.3333 7.875 14.6667C7.875 16 9.1875 16 9.1875 16H19.6875ZM9.21637 14.6667C9.20668 14.6653 9.19705 14.6635 9.1875 14.6613C9.18881 14.3093 9.40669 13.288 10.185 12.368C10.9095 11.5053 12.1826 10.6667 14.4375 10.6667C16.6911 10.6667 17.9642 11.5067 18.69 12.368C19.4683 13.288 19.6849 14.3107 19.6875 14.6613L19.677 14.664C19.6709 14.665 19.6648 14.6659 19.6586 14.6667H9.21637ZM14.4375 6.66667C15.1337 6.66667 15.8014 6.38572 16.2937 5.88562C16.7859 5.38552 17.0625 4.70724 17.0625 4C17.0625 3.29276 16.7859 2.61448 16.2937 2.11438C15.8014 1.61428 15.1337 1.33333 14.4375 1.33333C13.7413 1.33333 13.0736 1.61428 12.5813 2.11438C12.0891 2.61448 11.8125 3.29276 11.8125 4C11.8125 4.70724 12.0891 5.38552 12.5813 5.88562C13.0736 6.38572 13.7413 6.66667 14.4375 6.66667ZM18.375 4C18.375 4.52529 18.2732 5.04543 18.0753 5.53073C17.8774 6.01604 17.5874 6.45699 17.2217 6.82843C16.8561 7.19986 16.422 7.4945 15.9443 7.69552C15.4666 7.89654 14.9546 8 14.4375 8C13.9204 8 13.4084 7.89654 12.9307 7.69552C12.453 7.4945 12.0189 7.19986 11.6533 6.82843C11.2876 6.45699 10.9976 6.01604 10.7997 5.53073C10.6018 5.04543 10.5 4.52529 10.5 4C10.5 2.93913 10.9148 1.92172 11.6533 1.17157C12.3917 0.421427 13.3932 0 14.4375 0C15.4818 0 16.4833 0.421427 17.2217 1.17157C17.9602 1.92172 18.375 2.93913 18.375 4ZM9.1035 9.70667C8.57848 9.53872 8.03727 9.42831 7.48912 9.37733C7.18112 9.34758 6.87189 9.3329 6.5625 9.33333C1.3125 9.33333 0 13.3333 0 14.6667C0 15.556 0.437063 16 1.3125 16H6.846C6.65143 15.5838 6.55439 15.1274 6.5625 14.6667C6.5625 13.32 7.05731 11.944 7.99312 10.7947C8.31206 10.4027 8.6835 10.036 9.1035 9.70667ZM6.4575 10.6667C5.6807 11.8524 5.26108 13.2424 5.25 14.6667H1.3125C1.3125 14.32 1.52775 13.2933 2.31 12.368C3.02531 11.52 4.26825 10.6933 6.4575 10.668V10.6667ZM1.96875 4.66667C1.96875 3.6058 2.38359 2.58839 3.12202 1.83824C3.86044 1.08809 4.86196 0.666667 5.90625 0.666667C6.95054 0.666667 7.95206 1.08809 8.69048 1.83824C9.42891 2.58839 9.84375 3.6058 9.84375 4.66667C9.84375 5.72753 9.42891 6.74495 8.69048 7.49509C7.95206 8.24524 6.95054 8.66667 5.90625 8.66667C4.86196 8.66667 3.86044 8.24524 3.12202 7.49509C2.38359 6.74495 1.96875 5.72753 1.96875 4.66667ZM5.90625 2C5.21006 2 4.54238 2.28095 4.05009 2.78105C3.55781 3.28115 3.28125 3.95942 3.28125 4.66667C3.28125 5.37391 3.55781 6.05219 4.05009 6.55229C4.54238 7.05238 5.21006 7.33333 5.90625 7.33333C6.60244 7.33333 7.27012 7.05238 7.76241 6.55229C8.25469 6.05219 8.53125 5.37391 8.53125 4.66667C8.53125 3.95942 8.25469 3.28115 7.76241 2.78105C7.27012 2.28095 6.60244 2 5.90625 2Z" fill="#A8B0B9"/>
</svg>
