<svg width="20" height="20" viewBox="0 0 20 20" fill="none" xmlns="http://www.w3.org/2000/svg">
<path d="M13.6953 0V1.20312C12.9529 1.3842 12.295 1.69515 11.8203 2.18555L10.8652 1.63477L9.86523 3.36523L10.873 3.94727C10.7855 4.29512 10.6953 4.64453 10.6953 5C10.6953 5.35547 10.7855 5.70488 10.873 6.05273L9.86523 6.63477L10.8652 8.36523L11.8203 7.81445C12.295 8.30485 12.9529 8.6158 13.6953 8.79688V10H15.6953V8.79688C16.4377 8.6158 17.0956 8.30485 17.5703 7.81445L18.5254 8.36523L19.5254 6.63477L18.5176 6.05273C18.6051 5.70488 18.6953 5.35547 18.6953 5C18.6953 4.64453 18.6051 4.29512 18.5176 3.94727L19.5254 3.36523L18.5254 1.63477L17.5703 2.18555C17.0956 1.69515 16.4377 1.3842 15.6953 1.20312V0H13.6953ZM14.6953 3C15.4453 3 15.8805 3.24524 16.1973 3.60156C16.514 3.95788 16.6953 4.47222 16.6953 5C16.6953 5.52778 16.514 6.04212 16.1973 6.39844C15.8805 6.75476 15.4453 7 14.6953 7C13.9453 7 13.5101 6.75476 13.1934 6.39844C12.8766 6.04212 12.6953 5.52778 12.6953 5C12.6953 4.47222 12.8766 3.95788 13.1934 3.60156C13.5101 3.24524 13.9453 3 14.6953 3ZM4.69531 8V9.20117C3.58465 9.41337 2.59943 9.85226 1.94727 10.5859C1.92811 10.6075 1.923 10.6364 1.9043 10.6582L1 10.1348L0 11.8652L0.962891 12.4219C0.805565 12.9365 0.695312 13.4662 0.695312 14C0.695312 14.5338 0.805564 15.0635 0.962891 15.5781L0 16.1348L1 17.8652L1.9043 17.3418C1.923 17.3636 1.92811 17.3925 1.94727 17.4141C2.59943 18.1477 3.58465 18.5866 4.69531 18.7988V20H6.69531V18.7988C7.80597 18.5866 8.7912 18.1477 9.44336 17.4141C9.46252 17.3925 9.46762 17.3636 9.48633 17.3418L10.3906 17.8652L11.3906 16.1348L10.4277 15.5781C10.5851 15.0635 10.6953 14.5338 10.6953 14C10.6953 13.4662 10.5851 12.9365 10.4277 12.4219L11.3906 11.8652L10.3906 10.1348L9.48633 10.6582C9.46762 10.6364 9.46252 10.6075 9.44336 10.5859C8.7912 9.85225 7.80597 9.41337 6.69531 9.20117V8H4.69531ZM5.69531 11C6.77865 11 7.46387 11.3702 7.94727 11.9141C8.43066 12.4579 8.69531 13.2222 8.69531 14C8.69531 14.7778 8.43066 15.5421 7.94727 16.0859C7.46387 16.6298 6.77865 17 5.69531 17C4.61198 17 3.92675 16.6298 3.44336 16.0859C2.95997 15.5421 2.69531 14.7778 2.69531 14C2.69531 13.2222 2.95997 12.4579 3.44336 11.9141C3.92675 11.3702 4.61198 11 5.69531 11ZM5.69531 13C5.4301 13 5.17574 13.1054 4.98821 13.2929C4.80067 13.4804 4.69531 13.7348 4.69531 14C4.69531 14.2652 4.80067 14.5196 4.98821 14.7071C5.17574 14.8946 5.4301 15 5.69531 15C5.96053 15 6.21488 14.8946 6.40242 14.7071C6.58996 14.5196 6.69531 14.2652 6.69531 14C6.69531 13.7348 6.58996 13.4804 6.40242 13.2929C6.21488 13.1054 5.96053 13 5.69531 13Z" fill="#A8B0B9"/>
</svg>
