<svg width="14" height="18" viewBox="0 0 14 18" fill="none" xmlns="http://www.w3.org/2000/svg">
<path d="M1.53 16.906C1.55 17.378 1.938 17.75 2.41 17.75H10.632C11.104 17.75 11.494 17.378 11.512 16.906L12.1 4.51H0.942L1.53 16.906ZM8.38 7.59C8.38 7.392 8.54 7.232 8.738 7.232H9.31C9.508 7.232 9.668 7.394 9.668 7.59V14.672C9.668 14.87 9.506 15.03 9.31 15.03H8.738C8.54 15.03 8.38 14.87 8.38 14.672V7.59ZM5.878 7.59C5.878 7.392 6.038 7.232 6.236 7.232H6.808C7.006 7.232 7.166 7.394 7.166 7.59V14.672C7.166 14.87 7.006 15.03 6.808 15.03H6.236C6.038 15.03 5.878 14.87 5.878 14.672V7.59ZM3.374 7.59C3.374 7.392 3.534 7.232 3.73 7.232H4.302C4.5 7.232 4.66 7.394 4.66 7.59V14.672C4.66 14.87 4.498 15.03 4.302 15.03H3.73C3.532 15.03 3.374 14.87 3.374 14.672V7.59ZM12.49 1.152H8.698V0.434C8.698 0.332 8.616 0.25 8.514 0.25H4.53C4.428 0.25 4.346 0.332 4.346 0.434V1.152H0.552C0.248 1.152 0 1.398 0 1.704V3.44H13.042V1.704C13.042 1.4 12.796 1.152 12.49 1.152Z" fill="#FF6760"/>
</svg>
