<svg width="24" height="23" viewBox="0 0 24 23" fill="none" xmlns="http://www.w3.org/2000/svg">
<path d="M21.2632 6.94739H2.73684C1.77761 6.94739 1 7.725 1 8.68423V20.2632C1 21.2224 1.77761 22 2.73684 22H21.2632C22.2224 22 23 21.2224 23 20.2632V8.68423C23 7.725 22.2224 6.94739 21.2632 6.94739Z" stroke="#A8B0B9" stroke-width="2" stroke-linejoin="round"/>
<path d="M9.10531 2.31579H14.8948V0H9.10531V2.31579ZM15.4737 2.89474V6.94737H17.7895V2.89474H15.4737ZM8.52636 6.94737V2.89474H6.21057V6.94737H8.52636ZM14.8948 2.31579C15.0483 2.31579 15.1956 2.37679 15.3042 2.48536C15.4127 2.59393 15.4737 2.74119 15.4737 2.89474H17.7895C17.7895 2.127 17.4845 1.39072 16.9417 0.847849C16.3988 0.30498 15.6625 0 14.8948 0V2.31579ZM9.10531 0C8.33758 0 7.60129 0.30498 7.05842 0.847849C6.51555 1.39072 6.21057 2.127 6.21057 2.89474H8.52636C8.52636 2.74119 8.58736 2.59393 8.69593 2.48536C8.8045 2.37679 8.95176 2.31579 9.10531 2.31579V0Z" fill="#A8B0B9"/>
<path d="M12.0001 11V17.9474M8.52637 14.4737H15.4737H8.52637Z" stroke="#A8B0B9" stroke-width="2" stroke-linecap="round" stroke-linejoin="round"/>
</svg>
