<svg width="23" height="23" viewBox="0 0 23 23" fill="none" xmlns="http://www.w3.org/2000/svg">
<path d="M21.0833 2.15624H17.9688V0.718741C17.9689 0.528117 17.8933 0.345249 17.7586 0.210368C17.6239 0.0754861 17.4411 -0.000361028 17.2505 -0.000488111C17.0599 -0.000615193 16.877 0.0749882 16.7421 0.20969C16.6072 0.344392 16.5314 0.527158 16.5312 0.717783V2.15624H12.2188V0.718741C12.2188 0.624353 12.2003 0.530878 12.1642 0.443651C12.1282 0.356424 12.0753 0.277154 12.0086 0.210368C11.9419 0.143581 11.8627 0.0905855 11.7755 0.0544068C11.6883 0.0182281 11.5949 -0.000425196 11.5005 -0.000488121C11.3099 -0.000615204 11.127 0.0749881 10.9921 0.20969C10.8572 0.344392 10.7814 0.527158 10.7812 0.717783V2.15624H6.46875V0.718741C6.46881 0.624353 6.45028 0.530878 6.41422 0.443651C6.37816 0.356424 6.32527 0.277154 6.25857 0.210368C6.19187 0.143581 6.11268 0.0905855 6.0255 0.0544068C5.93832 0.0182281 5.84487 -0.000425196 5.75048 -0.000488121C5.55985 -0.000615204 5.37699 0.0749881 5.24211 0.20969C5.10722 0.344392 5.03138 0.527158 5.03125 0.717783V2.15624H1.91667C1.4085 2.15624 0.921135 2.35804 0.561717 2.71728C0.2023 3.07652 0.000254083 3.56378 0 4.07195V21.0824C0 21.5907 0.201934 22.0782 0.561379 22.4377C0.920823 22.7971 1.40833 22.999 1.91667 22.999H21.0833C21.5917 22.999 22.0792 22.7971 22.4386 22.4377C22.7981 22.0782 23 21.5907 23 21.0824V4.07195C22.9997 3.56378 22.7977 3.07652 22.4383 2.71728C22.0789 2.35804 21.5915 2.15624 21.0833 2.15624ZM21.5625 21.0833C21.5625 21.2102 21.5121 21.332 21.4225 21.4218C21.3328 21.5116 21.2112 21.5622 21.0843 21.5625H1.91667C1.78958 21.5625 1.66771 21.512 1.57784 21.4221C1.48798 21.3323 1.4375 21.2104 1.4375 21.0833V4.07291C1.43775 3.94599 1.48835 3.82436 1.57818 3.7347C1.66802 3.64505 1.78975 3.5947 1.91667 3.5947H5.03125V5.0322C5.03112 5.22282 5.10673 5.40569 5.24143 5.54057C5.37613 5.67545 5.5589 5.7513 5.74952 5.75143C5.94015 5.75156 6.12301 5.67595 6.25789 5.54125C6.39278 5.40655 6.46862 5.22378 6.46875 5.03316V3.5947H10.7812V5.0322C10.7811 5.22282 10.8567 5.40569 10.9914 5.54057C11.1261 5.67545 11.3089 5.7513 11.4995 5.75143C11.6901 5.75156 11.873 5.67595 12.0079 5.54125C12.1428 5.40655 12.2186 5.22378 12.2188 5.03316V3.5947H16.5312V5.0322C16.5311 5.22282 16.6067 5.40569 16.7414 5.54057C16.8761 5.67545 17.0589 5.7513 17.2495 5.75143C17.4401 5.75156 17.623 5.67595 17.7579 5.54125C17.8928 5.40655 17.9686 5.22378 17.9688 5.03316V3.5947H21.0833C21.2101 3.59495 21.3316 3.64542 21.4212 3.73504C21.5108 3.82467 21.5613 3.94616 21.5615 4.07291L21.5625 21.0833Z" fill="#142748"/>
<path d="M5.03125 8.625H7.90625V10.7812H5.03125V8.625ZM5.03125 12.2188H7.90625V14.375H5.03125V12.2188ZM5.03125 15.8125H7.90625V17.9688H5.03125V15.8125ZM10.0625 15.8125H12.9375V17.9688H10.0625V15.8125ZM10.0625 12.2188H12.9375V14.375H10.0625V12.2188ZM10.0625 8.625H12.9375V10.7812H10.0625V8.625ZM15.0938 15.8125H17.9688V17.9688H15.0938V15.8125ZM15.0938 12.2188H17.9688V14.375H15.0938V12.2188ZM15.0938 8.625H17.9688V10.7812H15.0938V8.625Z" fill="#142748"/>
</svg>
