<svg width="33" height="33" viewBox="0 0 33 33" fill="none" xmlns="http://www.w3.org/2000/svg">
<path fill-rule="evenodd" clip-rule="evenodd" d="M20.3173 2.39958C19.972 1.68089 19.4305 1.07433 18.7552 0.649791C18.0799 0.225248 17.2984 0 16.5006 0C15.7029 0 14.9213 0.225248 14.2461 0.649791C13.5708 1.07433 13.0293 1.68089 12.684 2.39958L0.50306 26.3451C-0.954266 29.2038 0.887278 33 4.31822 33H28.6815C32.114 33 33.9525 29.2053 32.4982 26.3451L20.3173 2.39958ZM16.5006 10.5019C16.8987 10.5019 17.2804 10.6599 17.5619 10.9412C17.8434 11.2225 18.0015 11.604 18.0015 12.0018V19.5011C18.0015 19.8989 17.8434 20.2804 17.5619 20.5617C17.2804 20.843 16.8987 21.001 16.5006 21.001C16.1026 21.001 15.7208 20.843 15.4394 20.5617C15.1579 20.2804 14.9998 19.8989 14.9998 19.5011V12.0018C14.9998 11.604 15.1579 11.2225 15.4394 10.9412C15.7208 10.6599 16.1026 10.5019 16.5006 10.5019ZM16.5006 23.2508C16.8987 23.2508 17.2804 23.4088 17.5619 23.6901C17.8434 23.9714 18.0015 24.3529 18.0015 24.7507V25.5006C18.0015 25.8984 17.8434 26.2799 17.5619 26.5612C17.2804 26.8425 16.8987 27.0005 16.5006 27.0005C16.1026 27.0005 15.7208 26.8425 15.4394 26.5612C15.1579 26.2799 14.9998 25.8984 14.9998 25.5006V24.7507C14.9998 24.3529 15.1579 23.9714 15.4394 23.6901C15.7208 23.4088 16.1026 23.2508 16.5006 23.2508Z" fill="#FF5126"/>
</svg>
