<svg width="22" height="22" viewBox="0 0 22 22" fill="none" xmlns="http://www.w3.org/2000/svg">
<path d="M20.7915 10.6764C20.5085 10.6764 20.2371 10.7888 20.037 10.989C19.8369 11.1891 19.7245 11.4605 19.7245 11.7435V18.1456C19.7245 18.4286 19.6121 18.7 19.412 18.9001C19.2119 19.1002 18.9405 19.2126 18.6575 19.2126H3.71914C3.43615 19.2126 3.16474 19.1002 2.96464 18.9001C2.76453 18.7 2.65211 18.4286 2.65211 18.1456V3.20726C2.65211 2.92427 2.76453 2.65287 2.96464 2.45276C3.16474 2.25265 3.43615 2.14024 3.71914 2.14024H10.1213C10.4043 2.14024 10.6757 2.02782 10.8758 1.82771C11.0759 1.62761 11.1883 1.3562 11.1883 1.07321C11.1883 0.790219 11.0759 0.518817 10.8758 0.318711C10.6757 0.118605 10.4043 0.00618697 10.1213 0.00618697H3.71914C2.87016 0.00618697 2.05596 0.343442 1.45564 0.943759C0.855321 1.54408 0.518066 2.35828 0.518066 3.20726V18.1456C0.518066 18.9946 0.855321 19.8088 1.45564 20.4091C2.05596 21.0094 2.87016 21.3467 3.71914 21.3467H18.6575C19.5065 21.3467 20.3207 21.0094 20.921 20.4091C21.5213 19.8088 21.8585 18.9946 21.8585 18.1456V11.7435C21.8585 11.4605 21.7461 11.1891 21.546 10.989C21.3459 10.7888 21.0745 10.6764 20.7915 10.6764ZM4.78616 11.4874V16.0115C4.78616 16.2945 4.89858 16.5659 5.09869 16.7661C5.29879 16.9662 5.57019 17.0786 5.85319 17.0786H10.3774C10.5178 17.0794 10.657 17.0525 10.787 16.9994C10.917 16.9463 11.0353 16.868 11.135 16.7691L18.5188 9.37466L21.5491 6.40833C21.6491 6.30914 21.7285 6.19112 21.7827 6.0611C21.8368 5.93107 21.8647 5.7916 21.8647 5.65074C21.8647 5.50988 21.8368 5.37042 21.7827 5.24039C21.7285 5.11036 21.6491 4.99235 21.5491 4.89316L17.0249 0.315624C16.9257 0.215613 16.8077 0.136233 16.6777 0.0820615C16.5477 0.0278901 16.4082 0 16.2673 0C16.1265 0 15.987 0.0278901 15.857 0.0820615C15.727 0.136233 15.6089 0.215613 15.5098 0.315624L12.5007 3.3353L5.0956 10.7298C4.99671 10.8295 4.91847 10.9477 4.86537 11.0777C4.81227 11.2077 4.78535 11.3469 4.78616 11.4874ZM16.2673 2.57771L19.287 5.59739L17.7718 7.11257L14.7522 4.09289L16.2673 2.57771ZM6.92021 11.9248L13.2477 5.59739L16.2673 8.61707L9.93989 14.9445H6.92021V11.9248Z" fill="#C4C4C4"/>
</svg>
