<svg width="14" height="16" viewBox="0 0 14 16" fill="none" xmlns="http://www.w3.org/2000/svg">
<path d="M14 15C14 14.45 13.55 14 13 14L1 14C0.45 14 1.35505e-07 14.45 8.74228e-08 15C3.93402e-08 15.55 0.45 16 1 16L13 16C13.55 16 14 15.55 14 15ZM11.59 6L10 6L10 1C10 0.449999 9.55 -3.89031e-07 9 -4.37114e-07L5 -7.86805e-07C4.45 -8.34888e-07 4 0.449999 4 0.999999L4 6L2.41 6C1.52 6 1.07 7.08 1.7 7.71L6.29 12.3C6.68 12.69 7.31 12.69 7.7 12.3L12.29 7.71C12.92 7.08 12.48 6 11.59 6Z" fill="#142748"/>
</svg>
